<?xml version="1.0" encoding="UTF-8"?>
<svg xmlns="http://www.w3.org/2000/svg" xmlns:xlink="http://www.w3.org/1999/xlink" width="192px" height="192px" viewBox="0 0 192 192" version="1.1">
<defs>
<linearGradient id="linear0" gradientUnits="userSpaceOnUse" x1="-0.00828" y1="0.07652" x2="0.57636" y2="0.78411" gradientTransform="matrix(191.230469,0,0,170.359375,0.0195312,21.132812)">
<stop offset="0" style="stop-color:rgb(25.490196%,81.960784%,100%);stop-opacity:1;"/>
<stop offset="1" style="stop-color:rgb(74.117647%,20.392157%,99.607843%);stop-opacity:1;"/>
</linearGradient>
<linearGradient id="linear1" gradientUnits="userSpaceOnUse" x1="0.43376" y1="0.02242" x2="0.50316" y2="0.8903" gradientTransform="matrix(87.429687,0,0,159.632812,66.003906,0.046875)">
<stop offset="0" style="stop-color:rgb(100%,91.764706%,51.372549%);stop-opacity:1;"/>
<stop offset="0.08333" style="stop-color:rgb(100%,86.666667%,20.784314%);stop-opacity:1;"/>
<stop offset="1" style="stop-color:rgb(100%,65.882353%,0%);stop-opacity:1;"/>
</linearGradient>
</defs>
<g id="surface1">
<path style=" stroke:none;fill-rule:nonzero;fill:url(#linear0);" d="M 190.632812 28.34375 L 100.792969 188.992188 C 98.9375 192.3125 94.171875 192.332031 92.289062 189.03125 L 0.667969 28.359375 C -1.382812 24.761719 1.691406 20.402344 5.765625 21.132812 L 95.703125 37.207031 C 96.277344 37.3125 96.867188 37.308594 97.441406 37.207031 L 185.496094 21.15625 C 189.558594 20.414062 192.648438 24.738281 190.632812 28.34375 Z M 190.632812 28.34375 "/>
<path style=" stroke:none;fill-rule:nonzero;fill:url(#linear1);" d="M 138.546875 0.046875 L 72.0625 13.074219 C 70.96875 13.289062 70.160156 14.214844 70.09375 15.328125 L 66.003906 84.398438 C 65.960938 85.167969 66.277344 85.910156 66.867188 86.40625 C 67.453125 86.90625 68.242188 87.09375 68.992188 86.921875 L 87.5 82.652344 C 89.234375 82.25 90.796875 83.777344 90.441406 85.519531 L 84.941406 112.449219 C 84.574219 114.261719 86.273438 115.808594 88.042969 115.273438 L 99.476562 111.796875 C 101.25 111.261719 102.953125 112.816406 102.578125 114.628906 L 93.839844 156.929688 C 93.292969 159.574219 96.8125 161.019531 98.277344 158.75 L 99.257812 157.234375 L 153.433594 49.117188 C 154.34375 47.308594 152.777344 45.242188 150.789062 45.625 L 131.734375 49.304688 C 129.945312 49.648438 128.421875 47.980469 128.925781 46.230469 L 141.363281 3.121094 C 141.867188 1.363281 140.339844 -0.304688 138.546875 0.046875 Z M 138.546875 0.046875 "/>
</g>
</svg>
